<svg xmlns="http://www.w3.org/2000/svg" version="1.1" viewBox="-5.0 -10.0 110.0 135.0">
 <path d="m67.094 8.0273c-23.188-9.4258-49.625 1.7305-59.062 24.898-9.4062 23.164 1.75 49.621 24.906 59.047 23.156 9.4258 49.625-1.7305 59.062-24.898 9.4062-23.164-1.75-49.621-24.906-59.047zm22.375 27.035-21.562 9.0859c1.3438 4.0898 1.2812 8.6562-0.46875 12.945-3.7188 9.1367-13.812 13.773-23.062 10.871l-8.8125 21.672c21.219 7.7461 44.938-2.6562 53.531-23.738 4.1562-10.266 4-21.223 0.375-30.836zm-56.125 23.664-21.562 9.0898c4.125 8.8789 11.344 16.348 20.906 20.645l8.8125-21.672c-3.5938-1.8242-6.4062-4.6875-8.1562-8.0625zm22.594-23.266c8.0312 3.2656 11.875 12.43 8.625 20.453-3.2812 8.0273-12.438 11.891-20.469 8.625-8.0312-3.2656-11.875-12.43-8.625-20.453 3.2812-8.0273 12.438-11.891 20.469-8.625zm8.5-25.102c-21.188-7.7383-44.938 2.6602-53.5 23.742-4.1875 10.266-4 21.223-0.375 30.832l21.562-9.0859c-1.3438-4.0898-1.2812-8.6523 0.4375-12.941 3.7188-9.1328 13.812-13.773 23.062-10.871zm-10.344 29.617c-5.5312-2.25-11.844 0.41016-14.094 5.9453-2.25 5.5312 0.40625 11.852 5.9375 14.102s11.844-0.41016 14.094-5.9453c2.25-5.5312-0.40625-11.852-5.9375-14.102zm-1.1875 2.8906c3.9375 1.6055 5.8438 6.0977 4.25 10.031-1.625 3.9375-6.125 5.832-10.031 4.2344-3.9375-1.6055-5.8438-6.0977-4.25-10.031 1.625-3.9375 6.0938-5.832 10.031-4.2344zm14.438-31.328-8.8125 21.672c3.5938 1.8242 6.4062 4.6836 8.1562 8.0625l21.562-9.0898c-4.125-8.8789-11.344-16.348-20.906-20.645z" fill-rule="evenodd"/>
<text x="0.0" y="117.5" font-size="5.0" font-weight="bold" font-family="Arbeit Regular, Helvetica, Arial-Unicode, Arial, Sans-serif" fill="#000000">Created by rendicon</text><text x="0.0" y="122.5" font-size="5.0" font-weight="bold" font-family="Arbeit Regular, Helvetica, Arial-Unicode, Arial, Sans-serif" fill="#000000">from Noun Project</text></svg>