<svg xmlns="http://www.w3.org/2000/svg" version="1.1" viewBox="-5.0 -10.0 110.0 135.0">
 <path d="m16.449 61.723 0.12891 0.011719c0.09375-0.011719 0.19922-0.011719 0.29688 0.011719 0.65234 0.10547 1.0781 0.72266 0.96875 1.3594l-0.93359 5.4766c-0.14062 0.83984-0.56641 1.5625-1.1836 2.0703-0.60156 0.50781-1.3828 0.81641-2.2344 0.81641h-1.1953c-0.83984 0-1.6328-0.30859-2.2344-0.81641-0.60156-0.50781-1.0391-1.2305-1.1836-2.0703l-0.76953-4.4844h-3.7148c-1.1602 0-2.2109-0.48438-2.9805-1.2422l-0.070312-0.082031c-0.72266-0.75781-1.1719-1.7852-1.1719-2.9102v-20.273c0-0.82812 0.25-1.6094 0.66406-2.2578l5.7617-33.816c0.16406-1.0156 0.6875-1.8945 1.4297-2.5195 0.74609-0.625 1.6914-0.99219 2.7344-0.99219h78.484c1.0391 0 2 0.36719 2.7344 0.99219 0.74609 0.625 1.2656 1.5039 1.4414 2.5312l5.7148 33.746c0.44922 0.66406 0.69922 1.4648 0.69922 2.3203v20.273c0 1.1719-0.47266 2.2227-1.2305 2.9922-0.76953 0.75781-1.832 1.2422-2.9922 1.2422h-3.7148l-0.76953 4.4844c-0.14062 0.83984-0.56641 1.5625-1.1836 2.0703-0.60156 0.50781-1.3828 0.81641-2.2344 0.81641h-1.1953c-0.83984 0-1.6328-0.30859-2.2344-0.81641s-1.0391-1.2305-1.1836-2.0703l-0.93359-5.4766c-0.10547-0.64062 0.33203-1.2539 0.96875-1.3594 0.10547-0.023438 0.19922-0.023438 0.30859-0.011719l0.11719-0.011719h12.055c0.50781 0 0.96875-0.21484 1.3125-0.54297 0.33203-0.34375 0.54297-0.80469 0.54297-1.3125v-20.273c0-0.41406-0.14062-0.80469-0.36719-1.1133l-0.035156-0.046875-0.09375-0.10547-0.046875-0.046875c-0.34375-0.33203-0.80469-0.54297-1.3125-0.54297h-91.211c-0.50781 0-0.96875 0.21484-1.3008 0.54297-0.34375 0.34375-0.54297 0.80469-0.54297 1.3125v20.273c0 0.49609 0.17578 0.93359 0.48438 1.2656l0.058593 0.046875c0.33203 0.33203 0.79297 0.54297 1.3008 0.54297h12.055zm41.438 34.754c-1.3125 0-2.3789-1.0664-2.3789-2.3789s1.0664-2.3789 2.3789-2.3789 2.3789 1.0664 2.3789 2.3789-1.0664 2.3789-2.3789 2.3789zm7.2031-2.3789c0-1.3125 1.0547-2.3789 2.3672-2.3789s2.3789 1.0664 2.3789 2.3789-1.0664 2.3789-2.3789 2.3789-2.3672-1.0664-2.3672-2.3789zm18.512-3.2422c0-1.4648-1.1953-2.6602-2.6602-2.6602h-61.875c-1.4648 0-2.6602 1.1953-2.6602 2.6602v6.4805c0 1.4531 1.1953 2.6602 2.6602 2.6602h61.875c1.4648 0 2.6602-1.207 2.6602-2.6602zm-46.285 1.0391c0.83984 0 1.5273 0.6875 1.5273 1.5156v1.3711c0 0.82812-0.6875 1.5156-1.5273 1.5156h-15.199c-0.82813 0-1.5156-0.6875-1.5156-1.5156v-1.3711c0-0.82812 0.6875-1.5156 1.5156-1.5156zm37.344 2.1992c0-1.3125 1.0664-2.3789 2.3789-2.3789s2.3789 1.0664 2.3789 2.3789-1.0664 2.3789-2.3789 2.3789-2.3789-1.0664-2.3789-2.3789zm8.0898-8.6484-3.5352-35.473h-58.41l-3.5469 35.473c0.56641-0.1875 1.1836-0.29687 1.8086-0.29687h23.254c-5.8906-2.8516-9.9492-8.8828-9.9492-15.863 0-9.7344 7.9023-17.637 17.637-17.637 9.7344 0 17.625 7.9023 17.625 17.637 0 6.9805-4.0586 13.012-9.9375 15.863h23.242c0.64062 0 1.2422 0.10547 1.8086 0.29687zm-32.742-22.473c3.4883 0 6.3164 2.8281 6.3164 6.3164 0 3.4883-2.8281 6.3164-6.3164 6.3164-3.4883 0-6.3164-2.8281-6.3164-6.3164 0-3.4883 2.8281-6.3164 6.3164-6.3164zm-34.73 1.125h-4.7539l0.69922 4.082c0.046875 0.27344 0.17578 0.50781 0.36719 0.66406 0.1875 0.16406 0.4375 0.26172 0.71094 0.26172h1.1953c0.27344 0 0.51953-0.09375 0.71094-0.26172 0.1875-0.15234 0.33203-0.39062 0.37891-0.66406l0.69922-4.082zm-11.723-28.648c0.27344-0.058594 0.55469-0.082031 0.83984-0.082031h91.211c0.28516 0 0.55469 0.023437 0.81641 0.070312l-5.3477-31.523c-0.070313-0.44922-0.29688-0.83984-0.625-1.1133-0.32031-0.27344-0.74609-0.42578-1.207-0.42578h-78.484c-0.46094 0-0.88672 0.15234-1.207 0.42578-0.32031 0.27344-0.55469 0.66406-0.625 1.1133zm85.938 28.648h-4.7539l0.69922 4.082c0.046875 0.27344 0.17578 0.50781 0.36719 0.66406 0.1875 0.16406 0.4375 0.26172 0.71094 0.26172h1.1953c0.27344 0 0.51953-0.09375 0.71094-0.26172 0.1875-0.15234 0.33203-0.39062 0.37891-0.66406l0.69922-4.082zm-72.145-11.32c0.65234 0 1.1836 0.53125 1.1836 1.1953 0 0.65234-0.53125 1.1836-1.1836 1.1836h-2.9453c-1.4922 0-2.8516-0.61328-3.832-1.5977-0.98047-0.98047-1.5977-2.3438-1.5977-3.832 0-1.4922 0.61328-2.8398 1.5977-3.832 0.98047-0.98047 2.3438-1.5977 3.832-1.5977h71.195c1.4922 0 2.8516 0.61328 3.832 1.5977 0.99219 0.99219 1.5977 2.3438 1.5977 3.832 0 1.4922-0.60156 2.8516-1.5977 3.832-0.98047 0.98047-2.3438 1.5977-3.832 1.5977h-2.9336c-0.66406 0-1.1953-0.53125-1.1953-1.1836 0-0.66406 0.53125-1.1953 1.1953-1.1953h2.9336c0.83984 0 1.6094-0.34375 2.1641-0.88672 0.55469-0.55469 0.89844-1.3242 0.89844-2.1641 0-0.83984-0.34375-1.6094-0.89844-2.1523-0.55469-0.55469-1.3242-0.89844-2.1641-0.89844h-71.195c-0.83984 0-1.5977 0.34375-2.1523 0.89844h-0.011719c-0.54297 0.54297-0.88672 1.3125-0.88672 2.1523 0 0.83984 0.34375 1.6094 0.88672 2.1641 0.55469 0.54297 1.3242 0.88672 2.1641 0.88672z"/>
<text x="0.0" y="117.5" font-size="5.0" font-weight="bold" font-family="Arbeit Regular, Helvetica, Arial-Unicode, Arial, Sans-serif" fill="#000000">Created by popcornarts</text><text x="0.0" y="122.5" font-size="5.0" font-weight="bold" font-family="Arbeit Regular, Helvetica, Arial-Unicode, Arial, Sans-serif" fill="#000000">from Noun Project</text></svg>