<svg xmlns="http://www.w3.org/2000/svg" version="1.1" viewBox="-5.0 -10.0 110.0 135.0">
 <path d="m50 9.375c-22.402 0-40.625 18.223-40.625 40.625s18.223 40.625 40.625 40.625 40.625-18.223 40.625-40.625-18.223-40.625-40.625-40.625zm0 79.027c-21.176 0-38.402-17.227-38.402-38.402s17.227-38.402 38.402-38.402 38.402 17.227 38.402 38.402-17.227 38.402-38.402 38.402zm0-56.812c-10.148 0-18.406 8.2578-18.406 18.406 0 10.148 8.2578 18.406 18.406 18.406s18.406-8.2578 18.406-18.406c0-10.148-8.2578-18.406-18.406-18.406zm0 34.594c-8.9258 0-16.188-7.2617-16.188-16.188 0-8.9258 7.2617-16.188 16.188-16.188s16.188 7.2617 16.188 16.188c0 8.9258-7.2617 16.188-16.188 16.188zm24.797-7.293c-0.55859 1.5586-1.2734 3.0742-2.1211 4.5039-0.20703 0.35156-0.57812 0.54297-0.95703 0.54297-0.19141 0-0.38672-0.050781-0.56641-0.15625-0.52734-0.3125-0.70312-0.99609-0.39062-1.5234 0.77734-1.3086 1.4297-2.6953 1.9414-4.1211 0.20703-0.57812 0.84375-0.875 1.4219-0.66797s0.87891 0.84375 0.66797 1.4219zm-2.1211-22.285c2.3984 4.0469 3.6641 8.6758 3.6641 13.395 0 1.2812-0.09375 2.5742-0.27734 3.8359-0.082031 0.55078-0.55469 0.94922-1.0977 0.94922-0.054688 0-0.10938-0.003906-0.16016-0.011718-0.60547-0.089844-1.0273-0.65234-0.9375-1.2617 0.16797-1.1562 0.25391-2.3398 0.25391-3.5156 0-4.3203-1.1602-8.5586-3.3555-12.262-0.3125-0.52734-0.13672-1.2109 0.39062-1.5234s1.2109-0.14063 1.5234 0.39062zm8.2148 28.242c-0.71875 1.4844-1.5508 2.9336-2.4766 4.3047-0.21484 0.31641-0.56641 0.48828-0.92187 0.48828-0.21484 0-0.42969-0.0625-0.62109-0.19141-0.50781-0.34375-0.64062-1.0352-0.29688-1.543 0.86719-1.2812 1.6445-2.6367 2.3164-4.0234 0.26562-0.55078 0.93359-0.78516 1.4844-0.51953s0.78516 0.92969 0.51953 1.4844zm3.3867-14.848c0 3.668-0.57812 7.2773-1.7188 10.73-0.15625 0.46484-0.58984 0.76172-1.0547 0.76172-0.11719 0-0.23438-0.019532-0.34766-0.054688-0.58203-0.19141-0.89844-0.82031-0.70703-1.4023 1.0664-3.2305 1.6094-6.6055 1.6094-10.035 0-6.4297-1.9062-12.637-5.5078-17.949-0.34375-0.50781-0.21094-1.1992 0.29688-1.543 0.50781-0.34375 1.1992-0.21094 1.543 0.29688 3.8555 5.6836 5.8906 12.32 5.8906 19.195zm-55.043-12.262c-0.77734 1.3086-1.4297 2.6953-1.9414 4.1211-0.16406 0.45312-0.58984 0.73438-1.0469 0.73438-0.125 0-0.25-0.019531-0.375-0.066406-0.57812-0.20703-0.87891-0.84375-0.66797-1.4219 0.55859-1.5586 1.2734-3.0742 2.1211-4.5039 0.3125-0.52734 0.99609-0.69922 1.5234-0.38672s0.70312 0.99609 0.39062 1.5234zm0 24.523c0.3125 0.52734 0.13672 1.2109-0.39062 1.5234-0.17969 0.10547-0.37109 0.15625-0.56641 0.15625-0.37891 0-0.75-0.19531-0.95703-0.54297-2.3984-4.0469-3.6641-8.6758-3.6641-13.395 0-1.2812 0.09375-2.5742 0.27734-3.8359 0.089844-0.60547 0.64844-1.0273 1.2617-0.9375 0.60547 0.089843 1.0273 0.65234 0.9375 1.2617-0.16797 1.1562-0.25391 2.3398-0.25391 3.5156 0 4.3203 1.1602 8.5586 3.3555 12.262zm-10.125-27.109c0.71875-1.4844 1.5508-2.9336 2.4766-4.3047 0.34375-0.50781 1.0352-0.64062 1.543-0.29688 0.50781 0.34375 0.64062 1.0352 0.29688 1.543-0.86719 1.2812-1.6445 2.6367-2.3164 4.0273-0.19141 0.39844-0.58984 0.62891-1 0.62891-0.16016 0-0.32422-0.035156-0.48047-0.10938-0.55078-0.26562-0.78516-0.92969-0.51953-1.4844zm4.3438 32.797c0.34375 0.50781 0.21094 1.1992-0.29688 1.543-0.19141 0.12891-0.40625 0.19141-0.62109 0.19141-0.35547 0-0.70703-0.17188-0.92188-0.48828-3.8555-5.6836-5.8906-12.32-5.8906-19.195 0-3.668 0.57812-7.2773 1.7188-10.73 0.19141-0.58203 0.82031-0.89844 1.4023-0.70703s0.89844 0.82031 0.70703 1.4023c-1.0664 3.2305-1.6094 6.6055-1.6094 10.035 0 6.4297 1.9062 12.637 5.5078 17.949zm26.547-23.66c-3.1484 0-5.7109 2.5625-5.7109 5.7109s2.5625 5.7109 5.7109 5.7109 5.7109-2.5625 5.7109-5.7109-2.5625-5.7109-5.7109-5.7109zm0 9.2031c-1.9258 0-3.4922-1.5664-3.4922-3.4922s1.5664-3.4922 3.4922-3.4922 3.4922 1.5664 3.4922 3.4922-1.5664 3.4922-3.4922 3.4922z"/>
<text x="0.0" y="117.5" font-size="5.0" font-weight="bold" font-family="Arbeit Regular, Helvetica, Arial-Unicode, Arial, Sans-serif" fill="#000000">Created by Puspa Kusuma</text><text x="0.0" y="122.5" font-size="5.0" font-weight="bold" font-family="Arbeit Regular, Helvetica, Arial-Unicode, Arial, Sans-serif" fill="#000000">from Noun Project</text></svg>